<?xml version="1.0" encoding="UTF-8" standalone="no"?>
<!DOCTYPE svg PUBLIC "-//W3C//DTD SVG 1.1//EN"
 "http://www.w3.org/Graphics/SVG/1.1/DTD/svg11.dtd">
<!-- Generated by graphviz version 2.47.3 (20210619.1520)
 -->
<!-- Title: dependencies Pages: 1 -->
<svg width="520pt" height="174pt"
 viewBox="0.00 0.00 520.00 173.80" xmlns="http://www.w3.org/2000/svg" xmlns:xlink="http://www.w3.org/1999/xlink">
<g id="graph0" class="graph" transform="scale(1 1) rotate(0) translate(4 169.8)">
<title>dependencies</title>
<polygon fill="white" stroke="transparent" points="-4,4 -4,-169.8 516,-169.8 516,4 -4,4"/>
<text text-anchor="middle" x="256" y="-8.2" font-family="sans-serif" font-size="14.00">dependencies</text>
<g id="clust1" class="cluster">
<title>cluster_HomePageModule</title>
<polygon fill="none" stroke="black" stroke-dasharray="1,5" points="8,-32.8 8,-157.8 504,-157.8 504,-32.8 8,-32.8"/>
</g>
<g id="clust5" class="cluster">
<title>cluster_HomePageModule_imports</title>
<polygon fill="none" stroke="black" points="314,-40.8 314,-92.8 496,-92.8 496,-40.8 314,-40.8"/>
</g>
<g id="clust2" class="cluster">
<title>cluster_HomePageModule_declarations</title>
<polygon fill="none" stroke="black" points="16,-40.8 16,-92.8 306,-92.8 306,-40.8 16,-40.8"/>
</g>
<!-- HomePage -->
<g id="node1" class="node">
<title>HomePage</title>
<polygon fill="#ffffb3" stroke="black" points="297.92,-84.8 220.08,-84.8 220.08,-48.8 297.92,-48.8 297.92,-84.8"/>
<text text-anchor="middle" x="259" y="-62.6" font-family="Times,serif" font-size="14.00">HomePage</text>
</g>
<!-- HomePageModule -->
<g id="node3" class="node">
<title>HomePageModule</title>
<polygon fill="#8dd3c7" stroke="black" points="319.47,-149.8 316.47,-153.8 295.47,-153.8 292.47,-149.8 198.53,-149.8 198.53,-113.8 319.47,-113.8 319.47,-149.8"/>
<text text-anchor="middle" x="259" y="-127.6" font-family="Times,serif" font-size="14.00">HomePageModule</text>
</g>
<!-- HomePage&#45;&gt;HomePageModule -->
<g id="edge1" class="edge">
<title>HomePage&#45;&gt;HomePageModule</title>
<path fill="none" stroke="black" d="M259,-84.91C259,-84.91 259,-103.79 259,-103.79"/>
<polygon fill="black" stroke="black" points="255.5,-103.79 259,-113.79 262.5,-103.79 255.5,-103.79"/>
</g>
<!-- SimpleLineChartComponent -->
<g id="node2" class="node">
<title>SimpleLineChartComponent</title>
<polygon fill="#ffffb3" stroke="black" points="201.76,-84.8 24.24,-84.8 24.24,-48.8 201.76,-48.8 201.76,-84.8"/>
<text text-anchor="middle" x="113" y="-62.6" font-family="Times,serif" font-size="14.00">SimpleLineChartComponent</text>
</g>
<!-- SimpleLineChartComponent&#45;&gt;HomePageModule -->
<g id="edge2" class="edge">
<title>SimpleLineChartComponent&#45;&gt;HomePageModule</title>
<path fill="none" stroke="black" d="M202.03,-66.8C207.64,-66.8 211.08,-66.8 211.08,-66.8 211.08,-66.8 211.08,-103.69 211.08,-103.69"/>
<polygon fill="black" stroke="black" points="207.58,-103.69 211.08,-113.69 214.58,-103.69 207.58,-103.69"/>
</g>
<!-- HomePageRoutingModule -->
<g id="node4" class="node">
<title>HomePageRoutingModule</title>
<polygon fill="#8dd3c7" stroke="black" points="488.09,-84.8 485.09,-88.8 464.09,-88.8 461.09,-84.8 321.91,-84.8 321.91,-48.8 488.09,-48.8 488.09,-84.8"/>
<text text-anchor="middle" x="405" y="-62.6" font-family="Times,serif" font-size="14.00">HomePageRoutingModule</text>
</g>
<!-- HomePageRoutingModule&#45;&gt;HomePageModule -->
<g id="edge3" class="edge">
<title>HomePageRoutingModule&#45;&gt;HomePageModule</title>
<path fill="none" stroke="black" d="M321.6,-66.8C313.72,-66.8 308.6,-66.8 308.6,-66.8 308.6,-66.8 308.6,-103.69 308.6,-103.69"/>
<polygon fill="black" stroke="black" points="305.1,-103.69 308.6,-113.69 312.1,-103.69 305.1,-103.69"/>
</g>
</g>
</svg>
