<?xml version="1.0" encoding="UTF-8" standalone="no"?>
<!DOCTYPE svg PUBLIC "-//W3C//DTD SVG 1.1//EN"
 "http://www.w3.org/Graphics/SVG/1.1/DTD/svg11.dtd">
<!-- Generated by graphviz version 2.47.3 (20210619.1520)
 -->
<!-- Title: dependencies Pages: 1 -->
<svg width="867pt" height="174pt"
 viewBox="0.00 0.00 867.00 173.80" xmlns="http://www.w3.org/2000/svg" xmlns:xlink="http://www.w3.org/1999/xlink">
<g id="graph0" class="graph" transform="scale(1 1) rotate(0) translate(4 169.8)">
<title>dependencies</title>
<polygon fill="white" stroke="transparent" points="-4,4 -4,-169.8 863,-169.8 863,4 -4,4"/>
<text text-anchor="middle" x="429.5" y="-8.2" font-family="sans-serif" font-size="14.00">dependencies</text>
<g id="clust1" class="cluster">
<title>cluster_LandingModule</title>
<polygon fill="none" stroke="black" stroke-dasharray="1,5" points="8,-32.8 8,-157.8 851,-157.8 851,-32.8 8,-32.8"/>
</g>
<g id="clust7" class="cluster">
<title>cluster_LandingModule_imports</title>
<polygon fill="none" stroke="black" points="649,-40.8 649,-92.8 843,-92.8 843,-40.8 649,-40.8"/>
</g>
<g id="clust2" class="cluster">
<title>cluster_LandingModule_declarations</title>
<polygon fill="none" stroke="black" points="16,-40.8 16,-92.8 641,-92.8 641,-40.8 16,-40.8"/>
</g>
<!-- LandingPage -->
<g id="node1" class="node">
<title>LandingPage</title>
<polygon fill="#ffffb3" stroke="black" points="632.87,-84.8 543.13,-84.8 543.13,-48.8 632.87,-48.8 632.87,-84.8"/>
<text text-anchor="middle" x="588" y="-62.6" font-family="Times,serif" font-size="14.00">LandingPage</text>
</g>
<!-- LandingModule -->
<g id="node5" class="node">
<title>LandingModule</title>
<polygon fill="#8dd3c7" stroke="black" points="502.21,-149.8 499.21,-153.8 478.21,-153.8 475.21,-149.8 395.79,-149.8 395.79,-113.8 502.21,-113.8 502.21,-149.8"/>
<text text-anchor="middle" x="449" y="-127.6" font-family="Times,serif" font-size="14.00">LandingModule</text>
</g>
<!-- LandingPage&#45;&gt;LandingModule -->
<g id="edge1" class="edge">
<title>LandingPage&#45;&gt;LandingModule</title>
<path fill="none" stroke="black" d="M588,-84.82C588,-102.17 588,-125.8 588,-125.8 588,-125.8 512.34,-125.8 512.34,-125.8"/>
<polygon fill="black" stroke="black" points="512.34,-122.3 502.34,-125.8 512.34,-129.3 512.34,-122.3"/>
</g>
<!-- LoginModalComponent -->
<g id="node2" class="node">
<title>LoginModalComponent</title>
<polygon fill="#ffffb3" stroke="black" points="524.83,-84.8 373.17,-84.8 373.17,-48.8 524.83,-48.8 524.83,-84.8"/>
<text text-anchor="middle" x="449" y="-62.6" font-family="Times,serif" font-size="14.00">LoginModalComponent</text>
</g>
<!-- LoginModalComponent&#45;&gt;LandingModule -->
<g id="edge2" class="edge">
<title>LoginModalComponent&#45;&gt;LandingModule</title>
<path fill="none" stroke="black" d="M449,-84.91C449,-84.91 449,-103.79 449,-103.79"/>
<polygon fill="black" stroke="black" points="445.5,-103.79 449,-113.79 452.5,-103.79 445.5,-103.79"/>
</g>
<!-- RegisterModalComponent -->
<g id="node3" class="node">
<title>RegisterModalComponent</title>
<polygon fill="#ffffb3" stroke="black" points="355.04,-84.8 190.96,-84.8 190.96,-48.8 355.04,-48.8 355.04,-84.8"/>
<text text-anchor="middle" x="273" y="-62.6" font-family="Times,serif" font-size="14.00">RegisterModalComponent</text>
</g>
<!-- RegisterModalComponent&#45;&gt;LandingModule -->
<g id="edge3" class="edge">
<title>RegisterModalComponent&#45;&gt;LandingModule</title>
<path fill="none" stroke="black" d="M273,-84.82C273,-102.17 273,-125.8 273,-125.8 273,-125.8 385.72,-125.8 385.72,-125.8"/>
<polygon fill="black" stroke="black" points="385.72,-129.3 395.72,-125.8 385.72,-122.3 385.72,-129.3"/>
</g>
<!-- ResetModalComponent -->
<g id="node4" class="node">
<title>ResetModalComponent</title>
<polygon fill="#ffffb3" stroke="black" points="172.48,-84.8 23.52,-84.8 23.52,-48.8 172.48,-48.8 172.48,-84.8"/>
<text text-anchor="middle" x="98" y="-62.6" font-family="Times,serif" font-size="14.00">ResetModalComponent</text>
</g>
<!-- ResetModalComponent&#45;&gt;LandingModule -->
<g id="edge4" class="edge">
<title>ResetModalComponent&#45;&gt;LandingModule</title>
<path fill="none" stroke="black" d="M98,-85.08C98,-106.12 98,-137.8 98,-137.8 98,-137.8 385.69,-137.8 385.69,-137.8"/>
<polygon fill="black" stroke="black" points="385.69,-141.3 395.69,-137.8 385.69,-134.3 385.69,-141.3"/>
</g>
<!-- LandingPageRoutingModule -->
<g id="node6" class="node">
<title>LandingPageRoutingModule</title>
<polygon fill="#8dd3c7" stroke="black" points="835.04,-84.8 832.04,-88.8 811.04,-88.8 808.04,-84.8 656.96,-84.8 656.96,-48.8 835.04,-48.8 835.04,-84.8"/>
<text text-anchor="middle" x="746" y="-62.6" font-family="Times,serif" font-size="14.00">LandingPageRoutingModule</text>
</g>
<!-- LandingPageRoutingModule&#45;&gt;LandingModule -->
<g id="edge5" class="edge">
<title>LandingPageRoutingModule&#45;&gt;LandingModule</title>
<path fill="none" stroke="black" d="M746,-85.08C746,-106.12 746,-137.8 746,-137.8 746,-137.8 512.44,-137.8 512.44,-137.8"/>
<polygon fill="black" stroke="black" points="512.44,-134.3 502.44,-137.8 512.44,-141.3 512.44,-134.3"/>
</g>
</g>
</svg>
