<?xml version="1.0" encoding="UTF-8" standalone="no"?>
<!DOCTYPE svg PUBLIC "-//W3C//DTD SVG 1.1//EN"
 "http://www.w3.org/Graphics/SVG/1.1/DTD/svg11.dtd">
<!-- Generated by graphviz version 2.47.3 (20210619.1520)
 -->
<!-- Title: dependencies Pages: 1 -->
<svg width="562pt" height="174pt"
 viewBox="0.00 0.00 562.00 173.80" xmlns="http://www.w3.org/2000/svg" xmlns:xlink="http://www.w3.org/1999/xlink">
<g id="graph0" class="graph" transform="scale(1 1) rotate(0) translate(4 169.8)">
<title>dependencies</title>
<polygon fill="white" stroke="transparent" points="-4,4 -4,-169.8 558,-169.8 558,4 -4,4"/>
<text text-anchor="middle" x="277" y="-8.2" font-family="sans-serif" font-size="14.00">dependencies</text>
<g id="clust1" class="cluster">
<title>cluster_MyReportsPageModule</title>
<polygon fill="none" stroke="black" stroke-dasharray="1,5" points="8,-32.8 8,-157.8 546,-157.8 546,-32.8 8,-32.8"/>
</g>
<g id="clust2" class="cluster">
<title>cluster_MyReportsPageModule_declarations</title>
<polygon fill="none" stroke="black" points="208,-40.8 208,-92.8 538,-92.8 538,-40.8 208,-40.8"/>
</g>
<g id="clust5" class="cluster">
<title>cluster_MyReportsPageModule_imports</title>
<polygon fill="none" stroke="black" points="16,-40.8 16,-92.8 200,-92.8 200,-40.8 16,-40.8"/>
</g>
<!-- MyReportsPage -->
<g id="node1" class="node">
<title>MyReportsPage</title>
<polygon fill="#ffffb3" stroke="black" points="530.2,-84.8 423.8,-84.8 423.8,-48.8 530.2,-48.8 530.2,-84.8"/>
<text text-anchor="middle" x="477" y="-62.6" font-family="Times,serif" font-size="14.00">MyReportsPage</text>
</g>
<!-- MyReportsPageModule -->
<g id="node3" class="node">
<title>MyReportsPageModule</title>
<polygon fill="#8dd3c7" stroke="black" points="385.75,-149.8 382.75,-153.8 361.75,-153.8 358.75,-149.8 236.25,-149.8 236.25,-113.8 385.75,-113.8 385.75,-149.8"/>
<text text-anchor="middle" x="311" y="-127.6" font-family="Times,serif" font-size="14.00">MyReportsPageModule</text>
</g>
<!-- MyReportsPage&#45;&gt;MyReportsPageModule -->
<g id="edge1" class="edge">
<title>MyReportsPage&#45;&gt;MyReportsPageModule</title>
<path fill="none" stroke="black" d="M477,-84.91C477,-104.14 477,-131.8 477,-131.8 477,-131.8 396.23,-131.8 396.23,-131.8"/>
<polygon fill="black" stroke="black" points="396.23,-128.3 386.23,-131.8 396.23,-135.3 396.23,-128.3"/>
</g>
<!-- ReportDetailModalComponent -->
<g id="node2" class="node">
<title>ReportDetailModalComponent</title>
<polygon fill="#ffffb3" stroke="black" points="406.19,-84.8 215.81,-84.8 215.81,-48.8 406.19,-48.8 406.19,-84.8"/>
<text text-anchor="middle" x="311" y="-62.6" font-family="Times,serif" font-size="14.00">ReportDetailModalComponent</text>
</g>
<!-- ReportDetailModalComponent&#45;&gt;MyReportsPageModule -->
<g id="edge2" class="edge">
<title>ReportDetailModalComponent&#45;&gt;MyReportsPageModule</title>
<path fill="none" stroke="black" d="M311,-84.91C311,-84.91 311,-103.79 311,-103.79"/>
<polygon fill="black" stroke="black" points="307.5,-103.79 311,-113.79 314.5,-103.79 307.5,-103.79"/>
</g>
<!-- MyReportsRoutingModule -->
<g id="node4" class="node">
<title>MyReportsRoutingModule</title>
<polygon fill="#8dd3c7" stroke="black" points="191.66,-84.8 188.66,-88.8 167.66,-88.8 164.66,-84.8 24.34,-84.8 24.34,-48.8 191.66,-48.8 191.66,-84.8"/>
<text text-anchor="middle" x="108" y="-62.6" font-family="Times,serif" font-size="14.00">MyReportsRoutingModule</text>
</g>
<!-- MyReportsRoutingModule&#45;&gt;MyReportsPageModule -->
<g id="edge3" class="edge">
<title>MyReportsRoutingModule&#45;&gt;MyReportsPageModule</title>
<path fill="none" stroke="black" d="M108,-84.91C108,-104.14 108,-131.8 108,-131.8 108,-131.8 225.99,-131.8 225.99,-131.8"/>
<polygon fill="black" stroke="black" points="225.99,-135.3 235.99,-131.8 225.99,-128.3 225.99,-135.3"/>
</g>
</g>
</svg>
