<?xml version="1.0" encoding="UTF-8" standalone="no"?>
<!DOCTYPE svg PUBLIC "-//W3C//DTD SVG 1.1//EN"
 "http://www.w3.org/Graphics/SVG/1.1/DTD/svg11.dtd">
<!-- Generated by graphviz version 2.47.3 (20210619.1520)
 -->
<!-- Title: dependencies Pages: 1 -->
<svg width="304pt" height="174pt"
 viewBox="0.00 0.00 304.00 173.80" xmlns="http://www.w3.org/2000/svg" xmlns:xlink="http://www.w3.org/1999/xlink">
<g id="graph0" class="graph" transform="scale(1 1) rotate(0) translate(4 169.8)">
<title>dependencies</title>
<polygon fill="white" stroke="transparent" points="-4,4 -4,-169.8 300,-169.8 300,4 -4,4"/>
<text text-anchor="middle" x="148" y="-8.2" font-family="sans-serif" font-size="14.00">dependencies</text>
<g id="clust1" class="cluster">
<title>cluster_ReportPageModule</title>
<polygon fill="none" stroke="black" stroke-dasharray="1,5" points="8,-32.8 8,-157.8 288,-157.8 288,-32.8 8,-32.8"/>
</g>
<g id="clust2" class="cluster">
<title>cluster_ReportPageModule_declarations</title>
<polygon fill="none" stroke="black" points="182,-40.8 182,-92.8 280,-92.8 280,-40.8 182,-40.8"/>
</g>
<g id="clust4" class="cluster">
<title>cluster_ReportPageModule_imports</title>
<polygon fill="none" stroke="black" points="16,-40.8 16,-92.8 174,-92.8 174,-40.8 16,-40.8"/>
</g>
<!-- ReportPage -->
<g id="node1" class="node">
<title>ReportPage</title>
<polygon fill="#ffffb3" stroke="black" points="271.81,-84.8 190.19,-84.8 190.19,-48.8 271.81,-48.8 271.81,-84.8"/>
<text text-anchor="middle" x="231" y="-62.6" font-family="Times,serif" font-size="14.00">ReportPage</text>
</g>
<!-- ReportPageModule -->
<g id="node2" class="node">
<title>ReportPageModule</title>
<polygon fill="#8dd3c7" stroke="black" points="218.36,-149.8 215.36,-153.8 194.36,-153.8 191.36,-149.8 93.64,-149.8 93.64,-113.8 218.36,-113.8 218.36,-149.8"/>
<text text-anchor="middle" x="156" y="-127.6" font-family="Times,serif" font-size="14.00">ReportPageModule</text>
</g>
<!-- ReportPage&#45;&gt;ReportPageModule -->
<g id="edge1" class="edge">
<title>ReportPage&#45;&gt;ReportPageModule</title>
<path fill="none" stroke="black" d="M204.39,-84.91C204.39,-84.91 204.39,-103.79 204.39,-103.79"/>
<polygon fill="black" stroke="black" points="200.89,-103.79 204.39,-113.79 207.89,-103.79 200.89,-103.79"/>
</g>
<!-- ReportRoutingModule -->
<g id="node3" class="node">
<title>ReportRoutingModule</title>
<polygon fill="#8dd3c7" stroke="black" points="166.27,-84.8 163.27,-88.8 142.27,-88.8 139.27,-84.8 23.73,-84.8 23.73,-48.8 166.27,-48.8 166.27,-84.8"/>
<text text-anchor="middle" x="95" y="-62.6" font-family="Times,serif" font-size="14.00">ReportRoutingModule</text>
</g>
<!-- ReportRoutingModule&#45;&gt;ReportPageModule -->
<g id="edge2" class="edge">
<title>ReportRoutingModule&#45;&gt;ReportPageModule</title>
<path fill="none" stroke="black" d="M129.98,-84.91C129.98,-84.91 129.98,-103.79 129.98,-103.79"/>
<polygon fill="black" stroke="black" points="126.48,-103.79 129.98,-113.79 133.48,-103.79 126.48,-103.79"/>
</g>
</g>
</svg>
